<svg xmlns="http://www.w3.org/2000/svg" xmlns:xlink="http://www.w3.org/1999/xlink" width="50" zoomAndPan="magnify" viewBox="0 0 37.5 37.499999" height="50" preserveAspectRatio="xMidYMid meet" version="1.0"><defs><g/><clipPath id="ac5913bac2"><path d="M 1.121094 1.121094 L 35.90625 1.121094 L 35.90625 35.90625 L 1.121094 35.90625 Z M 1.121094 1.121094 " clip-rule="nonzero"/></clipPath></defs><g clip-path="url(#ac5913bac2)"><path fill="#ffffff" d="M 18.503906 1.121094 C 8.898438 1.121094 1.121094 8.898438 1.121094 18.503906 C 1.121094 28.105469 8.898438 35.886719 18.503906 35.886719 C 28.105469 35.886719 35.886719 28.105469 35.886719 18.503906 C 35.886719 8.898438 28.105469 1.121094 18.503906 1.121094 Z M 18.503906 32.410156 C 10.820312 32.410156 4.597656 26.1875 4.597656 18.503906 C 4.597656 10.820312 10.820312 4.597656 18.503906 4.597656 C 26.1875 4.597656 32.410156 10.820312 32.410156 18.503906 C 32.410156 26.1875 26.1875 32.410156 18.503906 32.410156 Z M 18.503906 32.410156 " fill-opacity="1" fill-rule="nonzero"/></g><g fill="#ffffff" fill-opacity="1"><g transform="translate(8.116715, 24.485151)"><g><path d="M 6.34375 -6.640625 L 8.984375 -6.640625 C 9.523438 -6.617188 9.859375 -6.476562 9.984375 -6.21875 C 10.078125 -6.03125 10.125 -5.75 10.125 -5.375 L 10.125 -2.078125 C 10.125 -1.753906 9.984375 -1.445312 9.703125 -1.15625 C 8.867188 -0.28125 7.609375 0.15625 5.921875 0.15625 C 4.429688 0.15625 3.132812 -0.40625 2.03125 -1.53125 C 0.925781 -2.664062 0.375 -4.03125 0.375 -5.625 C 0.375 -7.21875 0.9375 -8.546875 2.0625 -9.609375 C 3.1875 -10.679688 4.507812 -11.21875 6.03125 -11.21875 C 7.207031 -11.21875 8.320312 -10.828125 9.375 -10.046875 C 9.644531 -9.835938 9.78125 -9.609375 9.78125 -9.359375 C 9.78125 -9.117188 9.664062 -8.835938 9.4375 -8.515625 C 9.050781 -7.984375 8.695312 -7.71875 8.375 -7.71875 C 8.1875 -7.71875 7.878906 -7.851562 7.453125 -8.125 C 7.035156 -8.40625 6.535156 -8.546875 5.953125 -8.546875 C 5.191406 -8.546875 4.515625 -8.273438 3.921875 -7.734375 C 3.328125 -7.203125 3.03125 -6.503906 3.03125 -5.640625 C 3.03125 -4.773438 3.332031 -4.039062 3.9375 -3.4375 C 4.539062 -2.832031 5.222656 -2.53125 5.984375 -2.53125 C 6.535156 -2.53125 7.03125 -2.617188 7.46875 -2.796875 L 7.46875 -4.4375 L 6.28125 -4.4375 C 5.96875 -4.4375 5.742188 -4.472656 5.609375 -4.546875 C 5.484375 -4.628906 5.398438 -4.75 5.359375 -4.90625 C 5.328125 -5.0625 5.3125 -5.269531 5.3125 -5.53125 C 5.3125 -5.800781 5.332031 -6.015625 5.375 -6.171875 C 5.414062 -6.335938 5.5 -6.453125 5.625 -6.515625 C 5.800781 -6.597656 6.039062 -6.640625 6.34375 -6.640625 Z M 6.34375 -6.640625 "/></g></g></g><g fill="#ffffff" fill-opacity="1"><g transform="translate(19.079675, 24.485151)"><g><path d="M 8.734375 -8.796875 C 8.992188 -8.265625 9.125 -7.671875 9.125 -7.015625 C 9.125 -6.367188 8.992188 -5.78125 8.734375 -5.25 C 8.472656 -4.726562 8.132812 -4.3125 7.71875 -4 C 6.894531 -3.351562 6.035156 -3.03125 5.140625 -3.03125 L 3.265625 -3.03125 L 3.265625 -1.34375 C 3.265625 -1.101562 3.253906 -0.925781 3.234375 -0.8125 C 3.222656 -0.695312 3.175781 -0.566406 3.09375 -0.421875 C 2.957031 -0.148438 2.566406 -0.015625 1.921875 -0.015625 C 1.222656 -0.015625 0.8125 -0.203125 0.6875 -0.578125 C 0.625 -0.742188 0.59375 -1.003906 0.59375 -1.359375 L 0.59375 -9.6875 C 0.59375 -9.925781 0.597656 -10.101562 0.609375 -10.21875 C 0.628906 -10.332031 0.679688 -10.460938 0.765625 -10.609375 C 0.910156 -10.878906 1.300781 -11.015625 1.9375 -11.015625 L 5.15625 -11.015625 C 6.039062 -11.015625 6.894531 -10.695312 7.71875 -10.0625 C 8.132812 -9.75 8.472656 -9.328125 8.734375 -8.796875 Z M 5.15625 -5.703125 C 5.457031 -5.703125 5.753906 -5.8125 6.046875 -6.03125 C 6.335938 -6.25 6.484375 -6.578125 6.484375 -7.015625 C 6.484375 -7.460938 6.335938 -7.796875 6.046875 -8.015625 C 5.753906 -8.242188 5.453125 -8.359375 5.140625 -8.359375 L 3.265625 -8.359375 L 3.265625 -5.703125 Z M 5.15625 -5.703125 "/></g></g></g></svg>